<svg xmlns="http://www.w3.org/2000/svg" viewBox="0 0 167 102">
    <path fill="#FFF" fill-rule="evenodd" d="M132.624 26.068S122.544.012 87.713.012C52.879.012 42.34 24.405 42.34 24.405s-14.665-2.082-23.371 5.828c-7.85 7.131-9.166 17.074-9.166 17.074S-1.656 51.476.174 69.38c1.832 17.832 20.625 19.994 20.625 19.994h1.16c6.661 7.628 17.716 12.632 30.246 12.632 12.522 0 23.563-4.992 30.226-12.613h1.389c6.071 3.506 13.501 5.594 21.563 5.594 8.052 0 15.474-2.085 21.538-5.579l3.041.003s37.037 2.874 37.037-30.859c0-27.071-34.375-32.484-34.375-32.484z"/>
</svg>
