<svg xmlns="http://www.w3.org/2000/svg" viewBox="0 0 42 42" aria-labelledby="linkedin-desc" >
    <title id="linkedin-desc">Linkedin account</title>
    <path fill-rule="evenodd" d="M37.765 0H4.234C1.895 0 0 1.88 0 4.199v33.602C0 40.12 1.895 42 4.234 42h33.531C40.104 42 42 40.12 42 37.801V4.199C42 1.88 40.104 0 37.765 0zM13.477 33.232H7.826V15.266h5.651v17.966zm-2.863-20.17c-1.784 0-2.936-1.25-2.936-2.793 0-1.579 1.189-2.792 3.01-2.792 1.822 0 2.937 1.213 2.974 2.792 0 1.543-1.152 2.793-3.048 2.793zm23.494 20.17h-5.651v-9.957c0-2.314-.818-3.894-2.862-3.894-1.562 0-2.491 1.066-2.9 2.094-.148.367-.186.882-.186 1.397v10.36h-5.651V20.997c0-2.241-.074-4.114-.148-5.731h4.907l.26 2.498h.112c.743-1.175 2.565-2.902 5.613-2.902 3.718 0 6.506 2.462 6.506 7.752v10.618z"/>
</svg>
