<svg xmlns="http://www.w3.org/2000/svg" viewBox="0 0 42 42" aria-labelledby="medium-desc">
    <title id="medium-desc">Medium account</title>
    <path fill-rule="evenodd" d="M0 0v42h42V0H0zm34.892 9.951l-2.252 2.16a.66.66 0 0 0-.251.632v15.868a.66.66 0 0 0 .251.632l2.2 2.16v.474H23.775v-.474l2.278-2.213c.224-.223.224-.289.224-.632V15.732l-6.336 16.092h-.856l-7.376-16.092v10.785c-.062.454.089.91.408 1.238l2.964 3.595v.474H6.677v-.474l2.964-3.595a1.44 1.44 0 0 0 .382-1.238V14.046a1.094 1.094 0 0 0-.356-.921L7.032 9.951v-.474h8.18l6.323 13.867 5.559-13.867h7.798v.474z"/>
</svg>
