<svg xmlns="http://www.w3.org/2000/svg" viewBox="0 0 200 200">
    <path transform="translate(-67, -68)" fill="#FFF" fill-rule="evenodd" d="M262.68 191.588c13.091-52.633-18.919-105.982-71.395-118.92C138.801 59.725 85.46 92.011 72.358 144.65c-13.091 52.62 18.939 105.966 71.42 118.894 52.473 12.95 105.806-19.34 118.902-71.956zm-15.047 3.612c12.224-49.07-17.652-98.8-66.571-110.884-22.512-5.539-45.179-2.153-64.3 7.889 20.857-14.426 47.497-20.223 73.909-13.701 48.947 12.06 78.809 61.796 66.594 110.871-6.597 26.504-24.128 47.447-46.585 59.245 17.768-12.296 31.342-30.832 36.953-53.42z"/>
</svg>
