<svg xmlns="http://www.w3.org/2000/svg" viewBox="0 0 2158 1283">
    <path fill="#FFF" fill-rule="evenodd" d="M2147.8 538.675l-1.922-.754-1.314 1.594.124-2.06-1.922-.755 2-.519.124-2.06 1.112 1.739 1.999-.519-1.313 1.595 1.112 1.739zm-14.475 529.059l-.408-.29-.402.298.15-.478-.408-.29.501-.004.151-.478.159.475.501-.005-.403.297.159.475zm0-637l-.408-.289-.402.297.15-.478-.408-.29.501-.004.151-.478.159.475.501-.005-.403.297.159.475zm-22.658 313.59l-.492-1.505-1.585.002 1.281-.932-.492-1.505 1.284.928 1.28-.932-.487 1.507 1.282.928-1.583.002-.488 1.507zm.488-638.507l-.488 1.507-.492-1.505-1.585.002 1.281-.932-.492-1.505 1.284.928 1.28-.932-.487 1.507 1.282.928-1.583.002zm-39.411 801.248l-2.698-1.118-1.898 2.22.23-2.911-2.699-1.117 2.841-.681.23-2.91 1.525 2.489 2.842-.68-1.898 2.219 1.525 2.489zm0-637l-2.698-1.117-1.898 2.219.23-2.911-2.699-1.117 2.841-.681.23-2.91 1.525 2.489 2.842-.68-1.898 2.219 1.525 2.489zm-39.453 549.567l-.388-2.205-2.219-.313 1.98-1.05-.388-2.205 1.611 1.556 1.979-1.049-.983 2.011 1.61 1.557-2.219-.314-.983 2.012zm.983-639.012l-.983 2.012-.388-2.205-2.219-.313 1.98-1.05-.388-2.205 1.611 1.556 1.979-1.049-.983 2.011 1.61 1.557-2.219-.314zm-87.136 472.617l-.408-.291-.403.298.15-.477-.408-.291.501-.004.151-.478.159.475.501-.004-.403.297.16.475zm0-637l-.408-.291-.403.298.15-.477-.408-.291.501-.004.151-.478.159.475.501-.004-.403.297.16.475zm-15.062 900.849l-1.011-.993-1.256.654.632-1.267-1.011-.992 1.401.209.633-1.268.233 1.397 1.402.209-1.257.654.234 1.397zm0-637l-1.011-.993-1.256.654.632-1.267-1.011-.992 1.401.209.633-1.268.233 1.397 1.402.209-1.257.654.234 1.397zm-24.481 991.477l-1.749-1.86-2.311 1.087 1.231-2.237-1.749-1.861 2.508.478 1.231-2.237.32 2.532 2.51.478-2.311 1.087.32 2.533zm0-637l-1.749-1.86-2.311 1.087 1.231-2.237-1.749-1.861 2.508.478 1.231-2.237.32 2.533 2.51.478-2.311 1.086.32 2.533zm-11.699 420.993l-1.746-2.055-2.496 1.024 1.417-2.294-1.746-2.056 2.622.637 1.416-2.294.204 2.689 2.621.637-2.496 1.024.204 2.688zm0-637l-1.746-2.055-2.496 1.024 1.417-2.294-1.746-2.056 2.622.637 1.416-2.294.204 2.689 2.621.637-2.496 1.024.204 2.688zm-46.529 429.588l-1.133-1.406-1.689.642.988-1.511-1.131-1.406 1.743.472.988-1.511.089 1.803 1.745.472-1.689.642.089 1.803zm0-637l-1.133-1.406-1.689.642.988-1.511-1.131-1.406 1.743.472.988-1.511.089 1.803 1.745.472-1.689.642.089 1.803zm-54 937.658l-1.427-1.106-1.493 1.015.611-1.699-1.427-1.106 1.805.056.611-1.699.505 1.735 1.805.056-1.494 1.015.504 1.733zm0-637l-1.427-1.106-1.493 1.015.611-1.699-1.427-1.106 1.805.056.611-1.699.505 1.735 1.805.056-1.494 1.015.504 1.733zm-27.339 234.977l-.177-1.106-1.106-.173.998-.51-.178-1.105.794.79.998-.51-.508.999.793.79-1.106-.174-.508.999zm.508-637.999l-.508.999-.177-1.105-1.106-.174.998-.51-.178-1.105.794.79.998-.51-.508.999.793.79-1.106-.174zm-36.388 1041.25l-.298-.402-.475.159.291-.408-.298-.402.477.15.291-.408.004.501.478.15-.475.159.005.501zm0-637l-.298-.402-.475.159.291-.408-.298-.402.477.15.291-.408.004.501.478.15-.475.159.005.501zm-26.769 430.859l-3.598-1.49-2.531 2.959.307-3.88-3.599-1.491 3.788-.908.307-3.88 2.035 3.32 3.788-.907-2.531 2.958 2.034 3.319zm0-637l-3.598-1.49-2.531 2.959.307-3.88-3.599-1.491 3.788-.908.307-3.88 2.035 3.32 3.788-.908-2.531 2.959 2.034 3.319zm-20.051 352.712l-.503-1.732-1.806-.058 1.493-1.014-.503-1.733 1.427 1.106 1.494-1.015-.611 1.699 1.427 1.106-1.806-.057-.612 1.698zm.612-638.698l-.612 1.698-.503-1.732-1.806-.057 1.493-1.015-.503-1.733 1.427 1.106 1.494-1.015-.611 1.699 1.427 1.106-1.806-.057zm-2.718 179.063l-1.804.09-.473 1.742-.642-1.688-1.805.09 1.407-1.132-.642-1.687 1.512.987 1.408-1.131-.473 1.741 1.512.988zm-94.113 564.151l-.933-1.28-1.506.492.929-1.282-.933-1.28 1.508.488.929-1.283.002 1.584 1.508.487-1.506.491.002 1.583zm0-637l-.933-1.28-1.506.491.929-1.281-.933-1.28 1.508.487.929-1.282.002 1.584 1.508.487-1.506.491.002 1.583zm-77.237 938.121l-1.427-1.106-1.494 1.015.611-1.699-1.427-1.106 1.806.056.611-1.699.504 1.735 1.806.056-1.494 1.015.504 1.733zm0-637l-1.427-1.106-1.494 1.015.611-1.698-1.427-1.107 1.806.056.611-1.699.504 1.735 1.806.056-1.494 1.015.504 1.733zm-35.135 452.497l-1.459-2.034-2.388.758 1.485-2.016-1.46-2.034 2.378.789 1.485-2.017-.016 2.504 2.377.788-2.386.758-.016 2.504zm.016-639.504l-.016 2.504-1.459-2.034-2.388.758 1.485-2.016-1.46-2.033 2.378.787 1.485-2.016-.016 2.504 2.377.788-2.386.758zm-.988 390.566l-1.557 1.609 1.05 1.978-2.013-.983-1.558 1.609.314-2.217-2.013-.983 2.207-.387.313-2.217 1.05 1.978 2.207-.387zm-29.493 75.75l-2.022-1.984-2.514 1.309 1.264-2.535-2.022-1.984 2.803.418 1.264-2.535.469 2.792 2.802.418-2.513 1.308.469 2.793zm0-637l-2.022-1.984-2.514 1.309 1.264-2.535-2.022-1.984 2.803.418 1.264-2.535.469 2.792 2.802.418-2.513 1.308.469 2.793zm-43.848 1092.84l-1.43-2.689-3.001.528 2.117-2.19-1.43-2.688 2.739 1.335 2.118-2.19-.425 3.015 2.738 1.336-3.001.528-.425 3.015zm.425-640.015l-.425 3.015-1.43-2.689-3.001.528 2.117-2.19-1.43-2.688 2.739 1.335 2.118-2.19-.425 3.015 2.738 1.336-3.001.528zm-45.311 245.026l-2.739-1.335-2.118 2.189.425-3.013-2.739-1.336 3.002-.527.425-3.015 1.43 2.688 3.002-.527-2.118 2.189 1.43 2.687zm0-637l-2.739-1.335-2.118 2.189.425-3.013-2.739-1.336 3.002-.527.425-3.015 1.43 2.688 3.002-.527-2.118 2.189 1.43 2.687zm-46.372 1092.974l-.469-2.791-2.803-.418 2.514-1.308-.469-2.792 2.022 1.984 2.514-1.308-1.264 2.534 2.022 1.983-2.803-.418-1.264 2.534zm1.264-639.534l-1.264 2.535-.469-2.792-2.803-.418 2.514-1.308-.469-2.792 2.022 1.984 2.514-1.309-1.264 2.535 2.022 1.983-2.803-.418zm-28.732 72.736l-1.051-1.978-2.207.387 1.558-1.608-1.051-1.978 2.014.983 1.558-1.609-.314 2.216 2.013.983-2.207.387-.313 2.217zm.313-639.217l-.313 2.217-1.051-1.978-2.207.387 1.558-1.608-1.051-1.978 2.014.983 1.558-1.609-.314 2.216 2.013.983-2.207.387zm-.695 389.846l-1.485 2.015 1.46 2.034-2.378-.788-1.485 2.015.016-2.502-2.378-.788 2.386-.758.016-2.503 1.46 2.033 2.388-.758zm-37.669 455.815l-.504-1.734-1.806-.056 1.494-1.015-.504-1.732 1.428 1.105 1.494-1.015-.611 1.698 1.427 1.107-1.806-.057-.612 1.699zm.612-638.699l-.612 1.699-.504-1.734-1.806-.056 1.494-1.015-.504-1.732 1.428 1.105 1.494-1.015-.611 1.698 1.427 1.107-1.806-.057zm-79.175 939.335l-.003-1.583-1.507-.487 1.506-.491-.002-1.582.933 1.279 1.506-.491-.929 1.281.933 1.279-1.508-.487-.929 1.282zm.929-638.282l-.929 1.282-.003-1.583-1.507-.487 1.506-.491-.002-1.582.933 1.279 1.506-.491-.929 1.281.933 1.279-1.508-.487zm-91.105 563.896l-1.512-.987-1.408 1.131.473-1.741-1.512-.988 1.805-.089.472-1.741.643 1.686 1.805-.089-1.408 1.131.642 1.687zm0-637l-1.512-.987-1.408 1.131.473-1.741-1.512-.987 1.805-.09.472-1.741.643 1.686 1.805-.089-1.408 1.131.642 1.687zm-5.25 177.53l.504 1.733-1.427-1.106-1.495 1.015.612-1.699-1.428-1.105 1.807.057.611-1.699.504 1.733 1.806.057-1.494 1.014zm-15.543 358.682l-2.035-3.319-3.788.907 2.531-2.958-2.034-3.318 3.598 1.49 2.532-2.958-.307 3.879 3.599 1.49-3.789.908-.307 3.879zm.307-640.879l-.307 3.879-2.035-3.319-3.788.907 2.531-2.958-2.034-3.318 3.598 1.49 2.532-2.958-.307 3.879 3.599 1.49-3.789.908zm-32.395 427.423l-.004-.5-.479-.151.476-.159-.005-.5.298.402.475-.159-.291.408.298.402-.477-.15-.291.407zm.291-637.407l-.291.407-.004-.5-.479-.151.476-.159-.005-.5.298.402.475-.159-.291.408.298.402-.477-.15zm-35.727 1042.12l-.793-.79-.998.509.508-.998-.794-.79 1.106.174.509-.999.177 1.105 1.106.174-.998.51.177 1.105zm0-637l-.793-.79-.998.509.508-.998-.794-.79 1.106.174.509-.999.177 1.105 1.106.174-.998.51.177 1.105zm-26.485 236.742l-.505-1.734-1.806-.056 1.495-1.015-.505-1.732 1.427 1.105 1.494-1.014-.611 1.698 1.427 1.106-1.805-.056-.611 1.698zm.611-638.698l-.611 1.698-.505-1.734-1.806-.056 1.495-1.015-.505-1.732 1.427 1.105 1.494-1.014-.611 1.698 1.427 1.106-1.805-.056zm-55.707 939.446l-.089-1.802-1.745-.472 1.689-.642-.089-1.802 1.134 1.405 1.689-.641-.989 1.51 1.132 1.406-1.743-.472-.989 1.51zm.989-638.51l-.989 1.51-.089-1.802-1.745-.472 1.689-.642-.089-1.802 1.134 1.405 1.689-.641-.989 1.51 1.132 1.406-1.743-.472zm-47.226 433.478l-.204-2.688-2.622-.637 2.497-1.023-.204-2.688 1.746 2.055 2.496-1.024-1.416 2.294 1.745 2.054-2.622-.636-1.416 2.293zm1.416-639.293l-1.416 2.293-.204-2.688-2.622-.637 2.497-1.023-.204-2.688 1.746 2.055 2.496-1.024-1.416 2.294 1.745 2.054-2.622-.636zm-12.811 422.944l-.321-2.532-2.51-.478 2.312-1.086-.32-2.532 1.75 1.859 2.311-1.086-1.231 2.236 1.749 1.86-2.509-.478-1.231 2.237zm1.231-639.237l-1.231 2.237-.321-2.532-2.51-.478 2.312-1.087-.32-2.531 1.75 1.859 2.311-1.086-1.231 2.236 1.749 1.86-2.509-.478zm-25.943 990.634l-.234-1.396-1.401-.209 1.256-.653-.233-1.397 1.011.992 1.256-.654-.632 1.267 1.011.992-1.402-.209-.632 1.267zm.632-638.267l-.632 1.268-.234-1.397-1.401-.209 1.256-.653-.233-1.397 1.011.992 1.256-.654-.632 1.267 1.011.992-1.402-.209zm-15.892 899.623l-.159-.474-.501.004.403-.297-.16-.475.409.291.402-.298-.15.477.408.29-.501.005-.151.477zm.151-637.477l-.151.477-.159-.474-.501.004.403-.297-.16-.475.409.291.402-.298-.15.477.408.29-.501.005zm-48.79 536.209l-1.916-.772-1.328 1.582.143-2.058-1.916-.772 2.005-.501.142-2.058 1.097 1.749 2.004-.501-1.328 1.582 1.097 1.749zm0-637l-1.916-.772-1.328 1.582.143-2.058-1.916-.773 2.005-.5.142-2.058 1.097 1.749 2.004-.501-1.328 1.582 1.097 1.749zm-13.499 528.965l-.406-.293-.405.293.155-.476-.406-.294h.501l.155-.476.155.476h.501l-.405.294.155.476zm0-637l-.406-.293-.405.293.155-.476-.406-.294h.501l.155-.476.155.476h.501l-.405.294.155.476zm-19.733 313.495l-.478-1.509-1.586-.012 1.289-.92-.478-1.509 1.276.94 1.289-.921-.501 1.502 1.274.94-1.584-.012-.501 1.501zm.501-638.501l-.501 1.501-.478-1.509-1.586-.012 1.289-.92-.478-1.509 1.276.94 1.289-.921-.501 1.502 1.274.94-1.584-.012zm-4.2 1009.493l-1.61-1.555-1.98 1.049.984-2.011-1.611-1.556 2.219.313.984-2.01.388 2.204 2.219.313-1.98 1.049.387 2.204zm0-637l-1.61-1.555-1.98 1.049.984-2.011-1.611-1.556 2.219.314.984-2.011.388 2.204 2.219.313-1.98 1.049.387 2.204zm-36.479 550.338l-1.526-2.489-2.841.681 1.898-2.219-1.526-2.488 2.699 1.117 1.898-2.219-.23 2.91 2.699 1.117-2.841.68-.23 2.91zm.23-639.91l-.23 2.91-1.526-2.489-2.841.681 1.898-2.219-1.526-2.489 2.699 1.118 1.898-2.219-.23 2.91 2.699 1.117-2.841.68zm-.453-119.087l-2.689-1.142-1.918 2.201.256-2.907-2.689-1.141 2.848-.655.256-2.907 1.503 2.502 2.848-.654-1.919 2.201 1.504 2.502zm-38.668 549.239l-.367-2.208-2.216-.333 1.989-1.031-.367-2.208 1.596 1.571 1.99-1.032-1.003 2.002 1.597 1.571-2.216-.334-1.003 2.002zm1.003-639.002l-1.003 2.002-.367-2.208-2.216-.333 1.989-1.031-.367-2.207 1.596 1.57 1.99-1.032-1.003 2.002 1.597 1.571-2.216-.334zm-4.24 370.371l.492 1.504-1.284-.928-1.281.932.488-1.506-1.283-.928 1.584-.002.488-1.506.491 1.504 1.586-.002-1.281.932zm-23.042 312.495l-.159-.475-.501.005.403-.297-.159-.475.408.29.402-.297-.15.477.408.29-.501.004-.151.478zm.151-637.478l-.151.478-.159-.475-.501.005.403-.297-.159-.475.408.29.402-.297-.15.477.408.29-.501.004zM609.204 753.63l-1.112-1.739-2 .518 1.314-1.594-1.112-1.739 1.922.755 1.314-1.594-.124 2.059 1.922.755-1.999.519-.125 2.06zm.125-639.06l-.125 2.06-1.112-1.739-2 .518 1.314-1.594-1.112-1.739 1.922.755 1.314-1.594-.124 2.059 1.922.755-1.999.519zm-46.52 532.675l-.405-.294-.405.294.155-.476-.406-.294h.501l.155-.476.155.476h.501l-.406.294.155.476zm0-637l-.405-.294-.405.294.155-.476-.406-.294h.501l.155-.476.155.476h.501l-.406.294.155.476zm-17.452 900.622l-1.002-1.001-1.262.642.643-1.261-1.002-1.001 1.4.221.644-1.261.221 1.399 1.399.221-1.262.642.221 1.399zm0-637l-1.002-1.001-1.262.642.643-1.261-1.002-1.001 1.4.221.644-1.261.221 1.399 1.399.221-1.262.642.221 1.399zm-27.694 991.134l-1.732-1.876-2.321 1.066 1.251-2.225-1.732-1.876 2.504.501 1.251-2.225.298 2.534 2.505.501-2.321 1.065.297 2.535zm0-637l-1.732-1.876-2.321 1.066 1.251-2.225-1.732-1.876 2.504.501 1.251-2.225.298 2.534 2.505.501-2.321 1.065.297 2.535zm-9.745 420.961l-1.727-2.07-2.505 1.001 1.437-2.28-1.727-2.071 2.616.66 1.437-2.28.179 2.69 2.617.66-2.506 1.001.179 2.689zm0-637l-1.727-2.07-2.505 1.001 1.437-2.28-1.727-2.071 2.616.66 1.437-2.28.179 2.69 2.617.66-2.506 1.001.179 2.689zM463.262 841.2l-1.121-1.416-1.694.626 1.002-1.501-1.12-1.416 1.739.487 1.003-1.5.072 1.802 1.741.488-1.695.626.073 1.804zm0-637l-1.121-1.416-1.694.626 1.002-1.501-1.12-1.416 1.739.487 1.003-1.5.072 1.802 1.741.488-1.695.626.073 1.804zm-56.729 937.065l-1.417-1.118-1.503 1.001.626-1.692-1.417-1.12 1.805.073.627-1.693.489 1.739 1.805.072-1.504 1.001.489 1.737zm0-637l-1.417-1.118-1.503 1.001.626-1.692-1.417-1.12 1.805.073.627-1.693.489 1.739 1.805.072-1.504 1.001.489 1.737zm-23.702 234.867l-.167-1.106-1.105-.184 1.002-.5-.167-1.107.787.797 1.002-.5-.517.993.786.798-1.104-.184-.517.993zm.517-637.993l-.517.993-.167-1.106-1.105-.184 1.002-.5-.167-1.107.787.797 1.002-.5-.517.993.786.797-1.104-.183zM343.294 1141.92l-.294-.405-.476.155.294-.405-.294-.405.476.155.294-.405v.5l.477.155-.477.155v.5zm0-637l-.294-.405-.476.155.294-.405-.294-.405.476.155.294-.405v.5l.477.155-.477.155v.5zm-24.905 430.688l-3.586-1.522-2.558 2.935.343-3.876-3.586-1.523 3.797-.873.342-3.876 2.005 3.337 3.796-.873-2.558 2.935 2.005 3.336zm0-637l-3.586-1.522-2.558 2.935.343-3.876-3.586-1.523 3.797-.873.342-3.876 2.005 3.337 3.796-.873-2.558 2.935 2.005 3.336zM300.91 651.236l-.489-1.737-1.805-.073 1.503-1.001-.488-1.737 1.418 1.118 1.503-1.001-.627 1.693 1.418 1.119-1.806-.074-.627 1.693zm.627-638.693l-.627 1.693-.489-1.737-1.805-.073 1.503-1.001-.488-1.737 1.418 1.119 1.503-1.002-.627 1.693 1.418 1.119-1.806-.074zm-6.634 817.788l-.627-1.693-1.805.074 1.417-1.119-.627-1.693 1.504 1.001 1.417-1.118-.488 1.736 1.503 1.001-1.805.074-.489 1.737zm.489-638.737l-.489 1.737-.627-1.693-1.805.074 1.417-1.119-.627-1.693 1.504 1.001 1.417-1.118-.488 1.736 1.503 1.001-1.805.074zm-91.66 563.25l-.922-1.288-1.51.478.941-1.273-.922-1.288 1.504.501.941-1.273-.013 1.582 1.504.501-1.511.478-.012 1.582zm.012-638.583l-.012 1.583-.922-1.288-1.51.478.941-1.273-.922-1.288 1.504.501.941-1.273-.013 1.582 1.504.501-1.511.477zm-79.985 938.901l-1.418-1.118-1.503 1.001.627-1.693-1.418-1.119 1.806.073.627-1.693.489 1.738 1.805.073-1.503 1.001.488 1.737zm0-637l-1.418-1.118-1.503 1.001.627-1.693-1.418-1.119 1.806.073.627-1.693.489 1.738 1.805.073-1.503 1.001.488 1.737zM90.29 870.404l-1.441-2.047-2.395.737 1.504-2.002-1.442-2.046 2.371.809 1.503-2.002-.039 2.502 2.371.81-2.393.736-.039 2.503zm.039-639.503l-.039 2.503-1.441-2.047-2.395.737 1.504-2.002-1.442-2.046 2.371.809 1.503-2.002-.039 2.502 2.371.81-2.393.736zm-5.064 1031.004l-2.005-1.001-1.572 1.595.334-2.214-2.004-1.001 2.21-.367.334-2.213 1.032 1.987 2.211-.367-1.573 1.594 1.033 1.987zm0-637l-2.005-1.001-1.572 1.595.334-2.214-2.004-1.001 2.21-.367.334-2.213 1.032 1.987 2.211-.367-1.573 1.594 1.033 1.987zM61.389 697l-2.004-2.002-2.526 1.285 1.287-2.522-2.004-2.002 2.8.443 1.286-2.522.444 2.795 2.799.443-2.526 1.285.444 2.797zm0-637l-2.004-2.002-2.526 1.285 1.287-2.522-2.004-2.002 2.8.443 1.286-2.522.444 2.795 2.799.444-2.526 1.284.444 2.797zM13.408 1152.286l-1.405-2.701-3.007.5 2.138-2.17-1.406-2.7 2.727 1.36 2.138-2.17-.453 3.01 2.727 1.36-3.006.5-.453 3.011zm.453-640.011l-.453 3.011-1.405-2.701-3.007.5 2.138-2.17-1.406-2.7 2.727 1.36 2.138-2.17-.453 3.01 2.727 1.36-3.006.5zm629.084 669.529l.488-1.506.491 1.504 1.586-.002-1.281.932.492 1.504-1.284-.928-1.281.932.488-1.506-1.283-.928 1.584-.002zm38.997-283.324l.256-2.907 1.503 2.502 2.848-.654-1.919 2.201 1.504 2.502-2.689-1.142-1.918 2.201.256-2.907-2.689-1.141 2.848-.655zm387.289 368.212l.611-1.698.504 1.733 1.806.057-1.494 1.014.504 1.733-1.427-1.106-1.495 1.015.612-1.699-1.428-1.105 1.807.056zm209.221-220.261l.016-2.503 1.46 2.033 2.388-.758-1.485 2.015 1.46 2.034-2.378-.788-1.485 2.015.016-2.502-2.378-.788 2.386-.758zm192.743 222.992l.313-2.217 1.05 1.978 2.207-.387-1.557 1.609 1.05 1.978-2.013-.983-1.558 1.609.314-2.217-2.013-.983 2.207-.387zm207.068-435.042l1.512.987 1.408-1.131-.473 1.741 1.512.988-1.804.09-.473 1.741-.642-1.687-1.805.09 1.407-1.132-.642-1.687zm466.503 338.8l.124-2.06 1.112 1.739 1.999-.518-1.313 1.594 1.112 1.739-1.922-.754-1.314 1.594.124-2.06-1.922-.755 2-.519z"/>
</svg>
