<svg xmlns="http://www.w3.org/2000/svg" viewBox="0 0 421 424">
    <path fill-rule="evenodd" d="M352.587 97.995l-18.754 34.317a144.504 144.504 0 0 1 5.424 9.168l81.735 9.392-64.244 51.781c.238 3.464.298 6.941.282 10.398l34.314 19.148-37.627 11.017a144.687 144.687 0 0 1-2.705 10.589l51.225 64.87-81.824-9.13a156.37 156.37 0 0 1-6.702 7.184l10.804 38.011-.639-.374.03.149-33.69-18.679a165.546 165.546 0 0 1-9.704 5.822l-9.333 82.345-51.418-64.698c-3.24.195-6.465.27-9.66.255l-18.828 34.201-.253-.868-.372.659-10.729-37.248a145.663 145.663 0 0 1-10.908-2.776l-64.437 51.593 9.065-82.367a159.05 159.05 0 0 1-7.267-6.9l-36.751 10.597 18.309-33.506a145.453 145.453 0 0 1-6.197-10.417L.012 273.136l64.215-51.774c-.238-3.573-.298-7.109-.268-10.649l-33.095-18.482 36.23-10.589c.833-3.854 1.769-7.667 2.869-11.432l-51.225-64.877 81.838 9.126a134.084 134.084 0 0 1 7.119-7.592l-10.641-37.36.669.348-.044-.131 33.199 18.384c3.12-2.009 6.301-3.951 9.57-5.744L149.78.012l51.464 64.698c3.477-.228 6.94-.288 10.373-.247l18.74-33.988.223.85.356-.648 10.715 37.15c3.462.76 6.91 1.639 10.328 2.657l64.422-51.605-9.051 82.386a165.079 165.079 0 0 1 7.862 7.506l37.375-10.776zm-178.866-14.46c-70.454 20.45-111.099 94.563-90.8 165.518 20.315 70.947 93.906 111.868 164.362 91.423 70.425-20.446 111.085-94.581 90.755-165.518-20.285-70.957-93.891-111.887-164.317-91.423zm71.08 248.274c-65.61 19.054-134.357-19.188-153.275-85.264-18.917-66.063 19.081-135.285 84.677-154.347 65.581-19.046 134.328 19.185 153.231 85.253 18.932 66.063-19.051 135.305-84.633 154.358zM177.199 99.574c-61.167 17.763-96.581 82.318-78.926 143.934 9.511 33.258 32.59 58.927 61.435 72.735-22.975-14.684-40.927-37.509-49.056-65.843-17.61-61.6 17.788-126.167 78.956-143.919 28.146-8.187 56.888-5.021 81.467 6.736-26.987-17.243-60.841-23.237-93.876-13.643z"/>
</svg>
