<svg xmlns="http://www.w3.org/2000/svg" viewBox="0 0 42 42">
    <path fill-rule="evenodd" d="M13.209 34c15.849 0 24.517-13.079 24.517-24.421 0-.372-.008-.742-.025-1.11A17.497 17.497 0 0 0 42 4.025a17.242 17.242 0 0 1-4.949 1.351A8.617 8.617 0 0 0 40.84.628a17.306 17.306 0 0 1-5.471 2.084A8.621 8.621 0 0 0 29.079 0c-4.759 0-8.618 3.844-8.618 8.582 0 .674.076 1.329.223 1.957A24.495 24.495 0 0 1 2.923 1.572 8.565 8.565 0 0 0 5.591 13.03a8.579 8.579 0 0 1-3.903-1.073c-.002.035-.002.071-.002.109 0 4.157 2.971 7.628 6.913 8.415a8.678 8.678 0 0 1-3.891.147 8.622 8.622 0 0 0 8.05 5.961 17.331 17.331 0 0 1-10.703 3.675c-.695 0-1.381-.04-2.055-.119A24.47 24.47 0 0 0 13.209 34"/>
</svg>
